<svg id="Capa_1" xmlns="http://www.w3.org/2000/svg" width="263.1" height="143.9" viewBox="0 0 263.1 143.9"><style>.st0{fill:#231f20}.st1{fill:#419946}.st2{fill:#71bb44}.st3{fill:#fff}</style><path class="st0" d="M40.8 84.7H28v-1s.9-.7 2-1.6c1-.9 1.8-1.7 2.3-2.9 3.9-10.2 4-10.5 15.9-42.4-1.3-.7-2.4-1.2-3.7-1.9.3-.7.2-.5.5-1.1h9.5c6.8 15.5 17.9 40.4 22.6 50.8 1.2 1.5 3.9 7.1 10.7 6.8-.1.3-.2.4-.6 1.1-6.7 1.4-11.2.4-14.5-3.2-1.3-1.1-4.7-9.2-9.9-21.5H42c-.4 1.2-4.1 10.5-4.1 11.3-.4 1.5 2.2 4.2 2.9 4.5m19.4-21.1c-2.5-5.6-8.9-20.1-8.9-20.1-1.1 3-6.1 16.3-7.5 20.1h16.4zM88.5 42.4v8.5h10.3v5.3H88.5v17.1c0 3.7 1.6 5.6 4.7 5.6 2.3 0 4.8-.8 7.4-2.3v6c-2.5 1.4-5.2 2.1-8.1 2.1-3 0-5.4-.9-7.4-2.6-.6-.5-1.1-1.1-1.5-1.8-.4-.7-.7-1.5-1-2.6-.3-1.1-.4-3.1-.4-6V56.1H78l10.5-13.7zM105 42.4h6.5v23.5c2.7-3.3 6.7-4.9 10.7-4.9 2.2 0 4.1.5 5.9 1.6 1.7 1.1 3 2.6 3.9 4.5.8 1.9 1.3 4.8 1.3 8.6v9h-6.5V74c0-2.4-.6-4.3-1.8-5.8-1.2-1.5-2.7-2.2-4.6-2.2-1.4 0-3.4.4-4.6 1.1-1.3.7-2.6 2-4.2 3.7v13.8H105V42.4zM165.6 67.9h-22.4c.2 3.1 1.2 6.2 3.1 8 1.9 1.8 4.4 2.8 7.5 2.8 4.3 0 8.2-1.3 11.8-4V81c-2 1.3-4 2.3-5.9 2.8-2 .6-4.2.9-6.9.9-3.6 0-5.9-.7-8.1-2.2-2.2-1.5-4-3.5-5.3-6-1.3-2.5-2-6-2-9.3 0-5 1.4-8.5 4.2-11.6 2.8-3.1 5.8-4.7 10.3-4.7 4.3 0 7.2 1.5 9.8 4.5 2.6 3 3.9 6.5 3.9 11.6v.9zM143.3 64h16.5c-.2-2.6-.9-4-2.3-5.4-1.4-1.4-3.2-2.1-5.5-2.1s-4.2.7-5.7 2.1c-1.5 1.4-2.5 2.8-3 5.4zM169.9 42.4h6.5v42.3h-6.5V42.4zM203.7 64.5v13.9c0 1.1.4 1.7 1.1 1.7.8 0 2-.6 3.7-1.7v3.9c-1.5.9-2.6 1.6-3.5 1.9-.9.3-1.8.5-2.8.5-2.8 0-4.4-1.1-4.9-3.3-2.7 2.1-5.7 3.2-8.8 3.2-2.3 0-4.2-.8-5.7-2.3-1.5-1.5-2.3-3.4-2.3-5.7 0-2.1.7-3.9 2.2-5.5 1.5-1.6 3.6-2.9 6.3-3.9l8.3-2.8v-1.7c0-3.9-2-5.9-5.9-5.9-3.5 0-7.6 2.6-10.9 6.2v-7c2.5-3 6.7-5.2 11.5-5.2 3.5 0 6.4.9 8.5 2.8.7.6 1.4 1.4 1.9 2.4.6 1 .9 2 1.1 2.9.2 1 .2 2.9.2 5.6zm-6.3 13.2V68l-4.3 1.7c-2.2.9-3.8 1.8-4.7 2.6-.9.9-1.4 2-1.4 3.3 0 1.4.4 2.5 1.3 3.3.9.9 2 1.3 3.4 1.3 2 0 3.9-.8 5.7-2.5zM212.8 81.8v-7c1.8 1.3 3.7 2.3 5.6 3.1 1.9.8 3.5 1.2 4.8 1.2 1.4 0 2.5-.3 3.5-1s1.5-1.5 1.5-2.4c0-.9-.3-1.7-.9-2.4-.6-.6-2-1.5-4.1-2.7-4.2-2.3-6.9-4.3-8.2-6-1.3-1.6-1.9-3.4-1.9-5.4 0-2.5 1-4.6 2.9-6.1 2-1.6 4.5-2.4 7.6-2.4 3.2 0 8.1 1.8 11.4 3.6v6.4c-3.8-2.3-8.6-4.4-11-4.4-1.3 0-2.3.3-3 .8-.8.5-1.2 1.2-1.2 2.1 0 .8.3 1.5 1 2.2.7.7 1.9 1.5 3.7 2.5l2.3 1.3c5.5 3.1 8.2 6.5 8.2 10.2 0 2.7-1 4.9-3.1 6.6-2.1 1.7-4.8 2.6-8.1 2.6-1.9 0-3.7-.2-5.2-.6-1.6-.3-3.5-1.1-5.8-2.2zM23.8 36.6c-1.2.1-2.3.4-3.4 1-1 .5-2 1.2-2.7 2-.8.8-1.4 1.8-1.8 2.8-.4 1.1-.7 2.2-.7 3.3 0 3.7 1.1 7.5 1.1 11.2 0 1-.2 2-.6 3.1-.4 1-1 2-1.7 3s-1.6 1.8-2.6 2.7c-1 .8-2.1 1.5-3.3 2.1 1.2.5 2.2 1.2 3.2 2s1.9 1.7 2.6 2.7c.7 1 1.3 2 1.7 3.1.4 1.1.6 2.2.6 3.3 0 6.7-3.7 14.7 4.1 18.8 1 .5 2.2.9 3.4 1v2.9c-2.4 0-4.6-.4-6.6-1.1-2.1-.8-3.9-1.8-5.4-3.1-7.2-6.1-3.9-13-3.9-20.5 0-1-.2-1.9-.6-2.8-.4-.9-1-1.6-1.7-2.3-.7-.7-1.5-1.2-2.5-1.6-.9-.4-1.9-.6-3-.6v-3.4c1.1 0 2.1-.2 3-.6.9-.4 1.8-.9 2.5-1.5s1.3-1.4 1.7-2.2c.4-.9.6-1.8.6-2.8 0-3.8-1.1-7.4-1.1-11.3 0-1.9.4-3.7 1.3-5.5.9-1.7 2.1-3.2 3.7-4.5 1.5-1.3 3.3-2.3 5.4-3s4.3-1.1 6.6-1.1v2.9zM239.3 33.7c2.4 0 4.6.4 6.6 1.1s3.9 1.8 5.4 3c1.5 1.3 2.8 2.8 3.7 4.5.9 1.7 1.3 3.5 1.3 5.5 0 3.8-1.1 7.5-1.1 11.3 0 1 .2 1.9.6 2.8.4.9 1 1.6 1.7 2.2.7.6 1.5 1.1 2.5 1.5.9.4 1.9.6 3 .6v3.4c-1.1 0-2.1.2-3 .6-.9.4-1.8.9-2.5 1.5-.7.7-1.3 1.4-1.7 2.3-.4.9-.6 1.8-.6 2.8 0 7.5 3.3 14.4-3.9 20.5-1.5 1.3-3.3 2.3-5.4 3.1-2.1.8-4.3 1.1-6.6 1.1v-2.9c1.2-.1 2.3-.4 3.4-1 7.8-4.1 4.1-12.1 4.1-18.8 0-1.1.2-2.2.6-3.3.4-1.1 1-2.2 1.7-3.1.7-1 1.6-1.9 2.6-2.7 1-.8 2.1-1.5 3.2-2-1.2-.6-2.3-1.3-3.3-2.1s-1.9-1.7-2.6-2.7c-.7-1-1.3-1.9-1.7-3-.4-1-.6-2.1-.6-3.1 0-3.7 1.1-7.4 1.1-11.2 0-1.2-.2-2.3-.7-3.3-.4-1.1-1-2-1.8-2.8-.8-.8-1.7-1.5-2.7-2-1-.5-2.2-.9-3.4-1v-2.8z"/><path class="st1" d="M135.4 18c-.4 0-.8.2-1.1.5-.3.3-.5.7-.5 1.1 0 .4.2.8.5 1.1.3.3.7.5 1.1.5.4 0 .8-.2 1.1-.5.3-.3.5-.7.5-1.1 0-.4-.2-.8-.5-1.1-.3-.4-.7-.5-1.1-.5z"/><path class="st1" d="M159.8 5.5s.1-.7.4-1.7c-.8-.5-5.1 3.1-5.1 3.1-.1 1-.1 7.8-.2 8.8-.1 1-.2 2.1-.7 2.9-1 1.6-2.6 2.7-4.5 3-1.9.3-3.7-.4-5.5-.6 0-.3 0-1.4-.2-2.4-.6-4.5-2.2-11.7-5.1-15.3-.8-1-1.7-1.9-2.7-2.7-.1-.1-.7-.7-1-.7-.3 0-.9.6-1 .7-1 .8-1.9 1.7-2.7 2.7-2.9 3.6-4.5 10.8-5.1 15.3-.1 1-.2 2.1-.2 2.4-1.8.2-3.7.9-5.5.6-1.8-.3-3.5-1.4-4.5-3-.6-.9-.6-1.9-.7-2.9-.1-1-.2-7.8-.2-8.8 0 0-4.3-3.6-5.1-3.1.3 1 .5 1.7.4 1.7 1.2 10-1.2 19.4-1.5 19.8.1.5 1.3 4.4 1.3 4.4s12.6-2.1 16.7-1.2c2.7.4 4.6 2.7 4.6 5.3h6.8c0-2.6 2-4.9 4.6-5.3 4.1-.9 16.7 1.2 16.7 1.2s1.2-3.9 1.3-4.4c-.1-.3-2.5-9.7-1.3-19.8zM137.9 20l2.4 1.9-.3.6-2.9-.9c-.3-.1-.4-.1-.4-.1-.2 0-.4.1-.4.4l-.5 7.8h-.7l-.6-7.8c0-.2-.2-.3-.4-.3s-.3 0-.4.1l-3 1-.3-.6 2.4-1.9c.2-.2.3-.3.3-.4 0-.2 0-.3-.1-.4l-2.6-2 .3-.6 3 1h.2c.3 0 .5-.1.6-.3l.6-7.6h.6l.6 7.6c0 .2.2.3.4.3h.1c.1 0 .1 0 .3-.1l2.9-1 .3.6-2.6 2c-.1.1-.1.2-.1.4 0 0 .1.2.3.3z"/><path class="st2" d="M38.8 129.5c0-4.8.1-10 .1-15.4-6.8 1.8-7.6 2.1-15.2 4.2 3.7 3.1 5 4.4 8.8 7.7 1.2 1 1.3 2.1.2 4-3 3.9-4.6 8.1-8.9 14 8.8-2.7 18.1-4.7 26.6-8.5-3.3-1.3-9.4-4.8-11.6-6z"/><path class="st2" d="M40.7 128.3c2.8 1.3 5.6 2.4 10.2 4.5 0-2.3.1-2.9.1-4.5 0-.1-10.3 0-10.3 0zM224.3 129.5c0-4.8-.1-10-.1-15.4 6.8 1.8 7.6 2.1 15.2 4.2-3.7 3.1-5 4.4-8.8 7.7-1.2 1-1.3 2.1-.2 4 3 3.9 4.5 8.1 8.9 14-8.8-2.7-18-4.7-26.6-8.5 3.2-1.3 9.4-4.8 11.6-6z"/><path class="st2" d="M222.3 128.3c-2.8 1.3-5.6 2.4-10.2 4.5 0-2.3-.1-2.9-.1-4.5 0-.1 10.3 0 10.3 0z"/><path class="st1" d="M222.2 123.1c0 1.6-1.3 2.9-2.9 2.9H43.6c-1.6 0-2.9-1.3-2.9-2.9v-18.6c0-1.6 1.3-2.9 2.9-2.9h175.7c1.6 0 2.9 1.3 2.9 2.9v18.6z"/><g><path class="st3" d="M52.9 109.8l1 .5-4.8 9.6-1-.5 4.8-9.6zM58.4 114.6l1.8-1.2.6 1.1-1.9.9 1.9.9-.6 1.1-1.8-1.2.2 2.1h-1.2l.2-2.1-1.8 1.2-.6-1.1 1.9-.9-1.9-.9.6-1.1 1.8 1.2-.2-2.1h1.2l-.2 2.1zM67.5 118.3h-1.3v-5.5l-.8 2.9h-1l-.8-2.9v5.5h-1.3v-8.1h1.5l1.1 3.7 1.1-3.7h1.5v8.1zM74.5 115.4c0 .5-.1.9-.2 1.3s-.3.7-.5 1c-.2.3-.5.5-.8.6-.3.1-.7.2-1.2.2s-.8-.1-1.2-.2c-.3-.1-.6-.4-.8-.6-.2-.3-.4-.6-.5-1-.1-.4-.2-.8-.2-1.3v-5.2h1.3v5.8c0 .2.1.4.2.6.1.2.2.3.4.5.2.1.4.2.7.2.3 0 .5-.1.7-.2.2-.1.3-.3.4-.5.1-.2.2-.4.2-.6v-5.8h1.3v5.2zM81.9 115.8c-.1.4-.2.8-.4 1.1-.2.3-.4.6-.6.8-.2.2-.5.4-.8.5-.3.1-.7.2-1.1.2-.6 0-1.1-.1-1.4-.4-.4-.2-.7-.5-1-.9s-.4-.8-.5-1.3c-.1-.5-.2-1-.2-1.6 0-.5.1-1.1.2-1.6s.3-1 .5-1.3c.2-.4.6-.7.9-.9.4-.2.9-.4 1.4-.4.2 0 .4 0 .5.1.2 0 .4.1.5.2.2.1.3.2.4.3.1.1.2.3.3.5v-1h1.2v3.1h-1.2c0-.3 0-.5-.1-.8-.1-.2-.2-.5-.3-.7-.1-.2-.3-.3-.5-.5-.2-.1-.5-.2-.7-.2-.4 0-.7.1-.9.3-.2.2-.4.4-.6.7-.1.3-.2.6-.3 1-.1.4-.1.7-.1 1.1 0 .4 0 .7.1 1.1.1.4.2.7.3 1 .1.3.3.5.6.7.2.2.5.3.9.3.5 0 .9-.2 1.2-.5.3-.3.5-.8.7-1.4l1 .5zM88.4 118.3h-1.3v-3.6h-2.6v3.6h-1.3v-8.1h1.3v3.4h2.6v-3.4h1.3v8.1zM89.7 114.2c0-.5.1-1.1.2-1.6s.3-1 .5-1.3c.2-.4.6-.7 1-.9.4-.2.9-.4 1.4-.4.6 0 1 .1 1.4.4.4.2.7.5 1 .9.2.4.4.8.5 1.3.1.5.2 1 .2 1.6 0 .5-.1 1.1-.2 1.6s-.3 1-.5 1.3c-.2.4-.6.7-1 .9-.4.2-.9.4-1.4.4-.6 0-1.1-.1-1.4-.4-.4-.2-.7-.5-1-.9-.2-.4-.4-.8-.5-1.3-.2-.5-.2-1-.2-1.6zm1.3 0c0 .4 0 .7.1 1.1.1.4.2.7.3 1 .1.3.3.5.6.7.2.2.5.3.9.3s.7-.1.9-.3c.2-.2.4-.4.6-.7.1-.3.2-.6.3-1 .1-.4.1-.7.1-1.1 0-.4 0-.7-.1-1.1-.1-.4-.2-.7-.3-1-.1-.3-.3-.5-.6-.7-.2-.2-.5-.3-.9-.3-.6 0-1 .3-1.4.8-.4.6-.5 1.4-.5 2.3zM109.3 118.3H108v-5.5l-.8 2.9h-1l-.8-2.9v5.5h-1.3v-8.1h1.5l1.1 3.7 1.1-3.7h1.5v8.1zM115.6 118.3l-.6-1.9h-2.7l-.6 1.9h-1.4l2.5-8.1h1.5l2.5 8.1h-1.2zm-.4-10l-2.7 1.5-.5-.8 2.5-1.8.7 1.1zm-2.5 6.9h2l-1-3.4-1 3.4zM123.4 116.1c0 .4-.1.7-.2 1-.1.3-.3.5-.5.7-.2.2-.5.4-.8.5-.3.1-.6.2-1 .2s-.7-.1-1-.2c-.3-.1-.6-.4-.8-.7v.7h-1.2v-2.7h1.2c0 .3 0 .5.1.7.1.2.2.4.4.5.2.1.3.2.5.3.2.1.4.1.6.1.4 0 .7-.1.9-.3.2-.2.4-.5.4-.9 0-.2 0-.4-.1-.5-.1-.1-.2-.3-.3-.4-.1-.1-.3-.2-.5-.3-.2-.1-.4-.2-.7-.3l-.9-.3c-.3-.1-.6-.3-.8-.5-.2-.2-.4-.4-.6-.7-.1-.3-.2-.6-.2-1s.1-.7.2-.9c.1-.3.3-.5.5-.7.2-.2.5-.3.8-.4.3-.1.6-.1.9-.1.4 0 .7.1 1 .2.3.2.5.4.6.6v-.7h1.2v2.5H122c0-.5-.1-.9-.4-1.1-.3-.3-.6-.4-1-.4s-.7.1-.9.3c-.2.2-.4.4-.4.7 0 .2 0 .3.1.4l.3.3c.1.1.3.2.5.3l.6.3c.3.1.6.2.9.4.3.1.6.3.8.5.2.2.4.4.6.7.2.4.3.8.3 1.2zM131.5 114.2c0-.5.1-1.1.2-1.6s.3-1 .5-1.3c.2-.4.6-.7 1-.9.4-.2.9-.4 1.4-.4.6 0 1 .1 1.4.4.4.2.7.5 1 .9.2.4.4.8.5 1.3.1.5.2 1 .2 1.6 0 .5 0 1-.1 1.5s-.2.9-.4 1.3-.5.7-.8 1c-.3.3-.7.4-1.2.5 0 .4.2.7.5.8.3.2.7.2 1.3.2h.5v1.1h-.6c-.8 0-1.5-.2-2-.6-.5-.4-.8-1-.9-1.7-.4-.1-.8-.3-1.1-.5-.3-.3-.5-.6-.7-.9-.2-.4-.3-.8-.4-1.2-.2-.5-.3-1-.3-1.5zm1.3 0c0 .4 0 .7.1 1.1.1.4.2.7.3 1 .1.3.3.5.6.7.2.2.5.3.9.3s.7-.1.9-.3c.2-.2.4-.4.6-.7.1-.3.2-.6.3-1 .1-.4.1-.7.1-1.1 0-.4 0-.7-.1-1.1-.1-.4-.2-.7-.3-1-.1-.3-.3-.5-.6-.7-.2-.2-.5-.3-.9-.3-.6 0-1 .3-1.4.8-.3.6-.5 1.4-.5 2.3zM144.2 115.4c0 .5-.1.9-.2 1.3s-.3.7-.5 1c-.2.3-.5.5-.8.6-.3.1-.7.2-1.2.2s-.8-.1-1.2-.2c-.3-.1-.6-.4-.8-.6-.2-.3-.4-.6-.5-1-.1-.4-.2-.8-.2-1.3v-5.2h1.3v5.8c0 .2.1.4.2.6.1.2.2.3.4.5.2.1.4.2.7.2.3 0 .5-.1.7-.2.2-.1.3-.3.4-.5.1-.2.2-.4.2-.6v-5.8h1.3v5.2zM151.2 118.3H146v-8.1h5.2v1.2h-3.9v2.3h3v1.2h-3v2.4h3.9v1zM165.5 115.8c-.1.4-.2.8-.4 1.1-.2.3-.4.6-.6.8-.2.2-.5.4-.8.5-.3.1-.7.2-1.1.2-.6 0-1.1-.1-1.4-.4-.4-.2-.7-.5-1-.9s-.4-.8-.5-1.3c-.1-.5-.2-1-.2-1.6 0-.5.1-1.1.2-1.6s.3-1 .5-1.3c.2-.4.6-.7.9-.9.4-.2.9-.4 1.4-.4.2 0 .4 0 .5.1.2 0 .4.1.5.2.2.1.3.2.4.3.1.1.2.3.3.5v-1h1.2v3.1h-1.2c0-.3 0-.5-.1-.8-.1-.2-.2-.5-.3-.7-.1-.2-.3-.3-.5-.5-.2-.1-.5-.2-.7-.2-.4 0-.7.1-.9.3-.2.2-.4.4-.6.7-.1.3-.2.6-.3 1-.1.4-.1.7-.1 1.1 0 .4 0 .7.1 1.1.1.4.2.7.3 1 .1.3.3.5.6.7.2.2.5.3.9.3.5 0 .9-.2 1.2-.5.3-.3.5-.8.7-1.4l1 .5zM166.4 114.2c0-.5.1-1.1.2-1.6s.3-1 .5-1.3c.2-.4.6-.7 1-.9.4-.2.9-.4 1.4-.4.6 0 1 .1 1.4.4.4.2.7.5 1 .9.2.4.4.8.5 1.3.1.5.2 1 .2 1.6 0 .5-.1 1.1-.2 1.6s-.3 1-.5 1.3c-.2.4-.6.7-1 .9-.4.2-.9.4-1.4.4-.6 0-1.1-.1-1.4-.4-.4-.2-.7-.5-1-.9-.2-.4-.4-.8-.5-1.3-.2-.5-.2-1-.2-1.6zm1.3 0c0 .4 0 .7.1 1.1.1.4.2.7.3 1s.3.5.6.7c.2.2.5.3.9.3s.7-.1.9-.3c.2-.2.4-.4.6-.7.1-.3.2-.6.3-1 .1-.4.1-.7.1-1.1 0-.4 0-.7-.1-1.1-.1-.4-.2-.7-.3-1-.1-.3-.3-.5-.6-.7-.2-.2-.5-.3-.9-.3-.6 0-1 .3-1.4.8-.4.6-.5 1.4-.5 2.3zm3.3-5.9l-2.7 1.5-.6-.9 2.5-1.8.8 1.2zM179.6 114.2c0 .5-.1 1.1-.2 1.6s-.3.9-.5 1.3c-.3.4-.6.7-1 .9-.4.2-.9.3-1.4.3h-2.6v-8.1h2.6c.6 0 1 .1 1.4.3.4.2.7.5 1 .9.3.4.4.8.6 1.3.1.5.1 1 .1 1.5zm-1.3 0c0-.9-.2-1.7-.5-2.2-.3-.5-.8-.7-1.4-.7H175v5.8h1.4c.6 0 1-.3 1.4-.8.4-.4.5-1.2.5-2.1zM185.4 118.3h-3.9v-1.2h1.3v-5.8h-1.3v-1.2h3.9v1.2h-1.3v5.8h1.3v1.2zM193.6 114.2c0 .6-.1 1.1-.2 1.6s-.3.9-.5 1.3c-.3.4-.6.7-1 .9-.4.2-.9.3-1.4.3-.6 0-1.1-.1-1.4-.4-.4-.2-.7-.5-1-.9-.3-.4-.4-.8-.5-1.3-.1-.5-.2-1-.2-1.6 0-.5.1-1.1.2-1.6s.3-1 .5-1.3c.3-.4.6-.7 1-.9.4-.2.9-.4 1.4-.4.2 0 .3 0 .5.1.2 0 .3.1.5.2s.3.2.4.3c.1.1.2.3.3.5v-1h1.2v2.9h-1.2c0-.3 0-.5-.1-.7l-.3-.6c-.1-.2-.3-.3-.5-.4-.2-.1-.4-.1-.7-.1-.4 0-.7.1-.9.3-.2.2-.4.4-.6.7-.1.3-.2.6-.3 1-.1.4-.1.7-.1 1.1 0 .4 0 .7.1 1.1.1.4.2.7.3 1 .1.3.3.5.6.7.2.2.5.3.9.3.5 0 1-.2 1.3-.5.3-.3.5-.9.7-1.6h-1.7V114h2.9v.2zM194.3 114.2c0-.5.1-1.1.2-1.6s.3-1 .5-1.3c.2-.4.6-.7 1-.9.4-.2.9-.4 1.4-.4.6 0 1 .1 1.4.4.4.2.7.5 1 .9.2.4.4.8.5 1.3.1.5.2 1 .2 1.6 0 .5-.1 1.1-.2 1.6s-.3 1-.5 1.3c-.2.4-.6.7-1 .9-.4.2-.9.4-1.4.4-.6 0-1.1-.1-1.4-.4-.4-.2-.7-.5-1-.9-.2-.4-.4-.8-.5-1.3-.2-.5-.2-1-.2-1.6zm1.2 0c0 .4 0 .7.1 1.1.1.4.2.7.3 1s.3.5.6.7c.2.2.5.3.9.3s.7-.1.9-.3c.2-.2.4-.4.6-.7.1-.3.2-.6.3-1 .1-.4.1-.7.1-1.1 0-.4 0-.7-.1-1.1-.1-.4-.2-.7-.3-1-.1-.3-.3-.5-.6-.7-.2-.2-.5-.3-.9-.3-.6 0-1 .3-1.4.8-.3.6-.5 1.4-.5 2.3zM204.8 114.6l1.8-1.2.6 1.1-1.9.9 1.9.9-.6 1.1-1.8-1.2.2 2.1h-1.2l.2-2.1-1.8 1.2-.6-1.1 1.9-.9-1.9-.9.6-1.1 1.8 1.2-.2-2.1h1.2l-.2 2.1zM213.3 109.8l1 .5-4.8 9.6-1-.5 4.8-9.6z"/></g></svg>