<?xml version="1.0" encoding="utf-8"?>
<!-- Generator: Adobe Illustrator 16.0.0, SVG Export Plug-In . SVG Version: 6.00 Build 0)  -->
<!DOCTYPE svg PUBLIC "-//W3C//DTD SVG 1.1//EN" "http://www.w3.org/Graphics/SVG/1.1/DTD/svg11.dtd">
<svg version="1.1" id="Capa_1" xmlns="http://www.w3.org/2000/svg" xmlns:xlink="http://www.w3.org/1999/xlink" x="0px" y="0px"
	 width="724.288px" height="197.11px" viewBox="0 0 724.288 197.11" enable-background="new 0 0 724.288 197.11"
	 xml:space="preserve">
<g>
	<path fill="#FDD500" d="M662.738,141.264c0,4.242-3.005,9.438-6.674,11.558L582.1,195.52c-3.674,2.121-9.688,2.121-13.357,0
		l-73.972-42.698c-3.67-2.111-6.671-7.315-6.671-11.558V55.841c0-4.235,3.001-9.439,6.671-11.562l73.972-42.688
		c3.67-2.122,9.684-2.122,13.357,0l73.965,42.688c3.669,2.122,6.674,7.326,6.674,11.562V141.264z"/>
	<g>
		<path fill="#332D2C" d="M29.967,34.9c-8.188,0-14.974,2.384-20.184,7.127C3.379,48.024,0,57.719,0,70.051v48.957
			c0,12.576,3.048,21.469,9.6,28.01c5.074,4.925,11.731,7.32,20.368,7.32c8.388,0,15.188-2.465,20.219-7.335
			c6.423-6.427,9.416-15.318,9.416-27.995v-2.412c0-4.224-3.362-7.663-7.491-7.663h-5.016c-4.221,0-7.652,3.439-7.652,7.663v2.412
			c0,6.146-0.889,10.451-2.576,12.703c-1.154,1.273-3.801,2.651-6.9,2.651c-4.494,0-9.646-1.743-9.646-15.354V70.051
			c0-13.443,5.152-15.177,9.646-15.177c4.071,0,9.476,1.573,9.476,15.177v2.423c0,4.221,3.431,7.66,7.652,7.66h5.016
			c4.128,0,7.491-3.438,7.491-7.66v-2.423c0-12.609-3.241-22.042-9.644-28.046C44.757,37.284,38.039,34.9,29.967,34.9z"/>
		<path fill="#332D2C" d="M91.565,30.314c10.902,0,29.625-13.71,30.386-14.264c2.806-1.937,3.973-5.258,2.97-8.485
			c-1.017-3.261-3.922-5.37-7.411-5.37c-12.47,0-29.587,13.749-30.212,14.276c-2.857,1.951-4.04,5.324-3.026,8.571
			C85.258,28.243,88.125,30.314,91.565,30.314z"/>
		<path fill="#332D2C" d="M105.222,34.9c-19.494,0-29.797,12.154-29.797,35.151v48.957c0,12.549,3.045,21.453,9.614,28.01
			c5.01,4.855,11.802,7.32,20.183,7.32c8.512,0,15.365-2.465,20.382-7.335c6.423-6.415,9.414-15.309,9.414-27.995V70.051
			C135.018,47.054,124.715,34.9,105.222,34.9z M95.583,70.051c0-13.443,5.145-15.177,9.639-15.177c4.493,0,9.645,1.733,9.645,15.177
			v48.957c0,13.611-5.152,15.354-9.645,15.354c-4.14,0-9.639-1.599-9.639-15.354V70.051z"/>
		<path fill="#332D2C" d="M178.234,34.9h-17.636c-4.22,0-7.652,3.439-7.652,7.653v104.131c0,4.215,3.432,7.654,7.652,7.654h17.636
			c21.148,0,31.875-11.996,31.875-35.667V70.566C210.109,46.895,199.382,34.9,178.234,34.9z M178.234,134.362h-5.308V54.875h5.308
			c8.1,0,11.553,4.689,11.553,15.691v48.105C189.787,129.674,186.333,134.362,178.234,134.362z"/>
		<path fill="#332D2C" d="M240.175,34.9h-4.842c-4.221,0-7.653,3.439-7.653,7.653v104.131c0,4.215,3.432,7.654,7.653,7.654h4.842
			c4.153,0,7.656-3.505,7.656-7.654V42.553C247.831,38.403,244.329,34.9,240.175,34.9z"/>
		<path fill="#0085C5" d="M293.636,34.9c-19.607,0-29.973,12.095-29.973,34.974v49.312c0,22.996,10.366,35.152,29.973,35.152
			c19.494,0,29.798-12.156,29.798-35.152v-18.506c0-4.217-3.354-7.656-7.476-7.656h-17.302c-2.785,0-5.12,1.102-6.747,3.191
			c-1.382,1.775-2.143,4.163-2.143,6.718c0,5.091,3.053,10.242,8.89,10.242h4.625v6.012c0,13.604-5.5,15.177-9.646,15.177
			c-4.572,0-9.823-1.733-9.823-15.177V69.874c0-6.801,1.14-11.081,3.567-13.156c1.235-1.239,3.282-1.843,6.255-1.843
			c2.945,0,4.89,0.578,6.299,1.874c1.25,1.149,3.347,4.364,3.347,13.125v2.43c0,4.224,3.432,7.664,7.653,7.664h5.023
			c4.121,0,7.476-3.44,7.476-7.664v-2.43C323.434,46.995,313.13,34.9,293.636,34.9z"/>
		<path fill="#0085C5" d="M369.931,34.9c-19.493,0-29.803,12.154-29.803,35.151v48.957c0,12.549,3.053,21.453,9.61,28.01
			c5.025,4.855,11.813,7.32,20.192,7.32c8.516,0,15.362-2.465,20.382-7.335c6.424-6.415,9.414-15.309,9.414-27.995V70.051
			C399.727,47.054,389.426,34.9,369.931,34.9z M360.286,70.051c0-13.443,5.151-15.177,9.645-15.177
			c4.492,0,9.644,1.733,9.644,15.177v48.957c0,13.611-5.151,15.354-9.644,15.354c-4.142,0-9.645-1.599-9.645-15.354V70.051z"/>
	</g>
	<g>
		<g>
			<path fill="#C3C4CA" d="M461.878,60.757c2.194,0,4.39,0.835,6.061,2.509c3.35,3.354,3.35,8.775,0,12.122l-23.16,23.157
				l23.16,23.17c3.35,3.348,3.35,8.776,0,12.121c-3.346,3.346-8.772,3.346-12.12,0l-29.223-29.231
				c-1.61-1.605-2.513-3.78-2.513-6.06c0-2.274,0.902-4.455,2.513-6.062l29.223-29.217
				C457.491,61.592,459.685,60.757,461.878,60.757z"/>
		</g>
	</g>
	<g>
		<g>
			<path fill="#C3C4CA" d="M686.485,136.346c-2.188,0-4.371-0.837-6.046-2.51c-3.348-3.345-3.348-8.77,0-12.113l23.157-23.165
				l-23.157-23.17c-3.348-3.347-3.348-8.769,0-12.122c3.347-3.347,8.774-3.347,12.123,0l29.216,29.231
				c1.607,1.607,2.51,3.789,2.51,6.062c0,2.281-0.902,4.456-2.51,6.061l-29.216,29.217
				C690.887,135.509,688.685,136.346,686.485,136.346z"/>
		</g>
	</g>
	<g>
		<g>
			<path fill="#FFFFFF" d="M523.331,59.017c0-2.622,2.099-4.726,4.59-4.726h3.671c2.621,0,4.723,2.104,4.723,4.726v59.667
				c0,6.95,2.094,11.02,8.51,11.02c6.7,0,8.529-4.727,8.529-11.02V59.017c0-2.622,2.102-4.726,4.603-4.726h3.655
				c2.637,0,4.733,2.104,4.733,4.726v59.667c0,14.686-6.293,23.993-21.521,23.993c-15.729,0-21.493-10.091-21.493-23.993V59.017z"/>
			<path fill="#FFFFFF" d="M589.462,140.056c-0.53,1.317-2.622,2.755-4.199,2.755h-4.071c-3.663,0-5.764-3.412-4.321-6.689
				l17.836-37.506L576.87,61.113c-1.442-3.283,0.527-6.693,4.321-6.693h4.071c1.577,0,3.669,1.449,4.199,2.753l12.456,25.974
				c4.057-8.661,8.257-17.309,12.333-25.974c0.513-1.435,2.607-2.753,4.197-2.753h4.057c3.669,0,5.77,3.411,4.197,6.693
				l-17.575,37.502l17.83,37.506c1.578,3.277-0.387,6.689-4.195,6.689h-4.058c-1.575,0-3.678-1.321-4.335-2.755l-12.32-26.093
				L589.462,140.056z"/>
		</g>
	</g>
</g>
</svg>
