<?xml version="1.0" encoding="UTF-8" standalone="no"?>
<svg
   xmlns:dc="http://purl.org/dc/elements/1.1/"
   xmlns:cc="http://creativecommons.org/ns#"
   xmlns:rdf="http://www.w3.org/1999/02/22-rdf-syntax-ns#"
   xmlns:svg="http://www.w3.org/2000/svg"
   xmlns="http://www.w3.org/2000/svg"
   id="svg3855"
   version="1.1"
   viewBox="0 0 124.61014 131.00562"
   height="53.00562mm"
   width="56.61014mm">
  <defs
     id="defs3849">
    <clipPath
       id="clipPath3845"
       clipPathUnits="userSpaceOnUse">
      <g
         id="use3847">
        <g
           id="g4123">
          <g
             clip-path="url(#clipPath20)"
             id="g4121">
            <g
               transform="translate(456.8066,225.1052)"
               id="g4047">
              <path
                 id="path4045"
                 style="fill:#f03949;fill-opacity:1;fill-rule:nonzero;stroke:none"
                 d="m 0,0 h -2.163 c -1.656,0 -3,1.343 -3,2.999 l -0.042,386.35 c 0,1.657 1.344,3 3,3 h 2.163 c 1.657,0 3,-1.343 3,-3 L 3,2.999 C 3,1.343 1.657,0 0,0" />
            </g>
            <g
               transform="translate(457.8301,369.2815)"
               id="g4051">
              <path
                 id="path4049"
                 style="fill:#ffffff;fill-opacity:1;fill-rule:nonzero;stroke:none"
                 d="m 0,0 c 0,-1.174 -0.951,-2.126 -2.126,-2.126 -1.174,0 -2.126,0.952 -2.126,2.126 0,1.174 0.952,2.126 2.126,2.126 C -0.951,2.126 0,1.174 0,0" />
            </g>
            <g
               transform="translate(457.8301,334.6218)"
               id="g4055">
              <path
                 id="path4053"
                 style="fill:#ffffff;fill-opacity:1;fill-rule:nonzero;stroke:none"
                 d="m 0,0 c 0,-1.174 -0.951,-2.126 -2.126,-2.126 -1.174,0 -2.126,0.952 -2.126,2.126 0,1.174 0.952,2.126 2.126,2.126 C -0.951,2.126 0,1.174 0,0" />
            </g>
            <g
               transform="translate(457.8301,299.9621)"
               id="g4059">
              <path
                 id="path4057"
                 style="fill:#ffffff;fill-opacity:1;fill-rule:nonzero;stroke:none"
                 d="m 0,0 c 0,-1.174 -0.951,-2.126 -2.126,-2.126 -1.174,0 -2.126,0.952 -2.126,2.126 0,1.174 0.952,2.126 2.126,2.126 C -0.951,2.126 0,1.174 0,0" />
            </g>
            <g
               transform="translate(457.8301,265.3025)"
               id="g4063">
              <path
                 id="path4061"
                 style="fill:#ffffff;fill-opacity:1;fill-rule:nonzero;stroke:none"
                 d="m 0,0 c 0,-1.174 -0.951,-2.126 -2.126,-2.126 -1.174,0 -2.126,0.952 -2.126,2.126 0,1.174 0.952,2.126 2.126,2.126 C -0.951,2.126 0,1.174 0,0" />
            </g>
            <g
               transform="translate(457.8301,230.6423)"
               id="g4067">
              <path
                 id="path4065"
                 style="fill:#ffffff;fill-opacity:1;fill-rule:nonzero;stroke:none"
                 d="m 0,0 c 0,-1.174 -0.951,-2.126 -2.126,-2.126 -1.174,0 -2.126,0.952 -2.126,2.126 0,1.175 0.952,2.126 2.126,2.126 C -0.951,2.126 0,1.175 0,0" />
            </g>
            <g
               transform="translate(457.8301,507.9201)"
               id="g4071">
              <path
                 id="path4069"
                 style="fill:#ffffff;fill-opacity:1;fill-rule:nonzero;stroke:none"
                 d="m 0,0 c 0,-1.174 -0.951,-2.126 -2.126,-2.126 -1.174,0 -2.126,0.952 -2.126,2.126 0,1.174 0.952,2.126 2.126,2.126 C -0.951,2.126 0,1.174 0,0" />
            </g>
            <g
               transform="translate(457.8301,473.2605)"
               id="g4075">
              <path
                 id="path4073"
                 style="fill:#ffffff;fill-opacity:1;fill-rule:nonzero;stroke:none"
                 d="m 0,0 c 0,-1.174 -0.951,-2.126 -2.126,-2.126 -1.174,0 -2.126,0.952 -2.126,2.126 0,1.174 0.952,2.126 2.126,2.126 C -0.951,2.126 0,1.174 0,0" />
            </g>
            <g
               transform="translate(457.8301,438.6008)"
               id="g4079">
              <path
                 id="path4077"
                 style="fill:#ffffff;fill-opacity:1;fill-rule:nonzero;stroke:none"
                 d="m 0,0 c 0,-1.174 -0.951,-2.126 -2.126,-2.126 -1.174,0 -2.126,0.952 -2.126,2.126 0,1.174 0.952,2.126 2.126,2.126 C -0.951,2.126 0,1.174 0,0" />
            </g>
            <g
               transform="translate(457.8301,403.9411)"
               id="g4083">
              <path
                 id="path4081"
                 style="fill:#ffffff;fill-opacity:1;fill-rule:nonzero;stroke:none"
                 d="m 0,0 c 0,-1.174 -0.951,-2.126 -2.126,-2.126 -1.174,0 -2.126,0.952 -2.126,2.126 0,1.174 0.952,2.126 2.126,2.126 C -0.951,2.126 0,1.174 0,0" />
            </g>
            <g
               transform="translate(457.8301,577.24)"
               id="g4087">
              <path
                 id="path4085"
                 style="fill:#ffffff;fill-opacity:1;fill-rule:nonzero;stroke:none"
                 d="m 0,0 c 0,-1.174 -0.951,-2.126 -2.126,-2.126 -1.174,0 -2.126,0.952 -2.126,2.126 0,1.174 0.952,2.126 2.126,2.126 C -0.951,2.126 0,1.174 0,0" />
            </g>
            <g
               transform="translate(457.8301,542.5803)"
               id="g4091">
              <path
                 id="path4089"
                 style="fill:#ffffff;fill-opacity:1;fill-rule:nonzero;stroke:none"
                 d="m 0,0 c 0,-1.174 -0.951,-2.126 -2.126,-2.126 -1.174,0 -2.126,0.952 -2.126,2.126 0,1.174 0.952,2.126 2.126,2.126 C -0.951,2.126 0,1.174 0,0" />
            </g>
            <g
               transform="translate(544.1279,259.8337)"
               id="g4095">
              <path
                 id="path4093"
                 style="fill:#ffffff;fill-opacity:1;fill-rule:nonzero;stroke:none"
                 d="m 0,0 c 0,-8.966 2.061,-16.004 6.182,-21.115 4.12,-5.113 10.207,-7.667 18.259,-7.667 8.053,0 14.117,2.548 18.191,7.642 4.073,5.097 6.11,12.143 6.11,21.14 0,9.185 -2.053,16.311 -6.158,21.376 -4.105,5.063 -10.137,7.597 -18.095,7.597 -7.959,0 -14.03,-2.534 -18.214,-7.597 C 2.092,16.311 0,9.185 0,0 m 57.472,0 c 0,-5.316 -0.732,-10.176 -2.195,-14.579 -1.463,-4.405 -3.57,-8.189 -6.322,-11.349 -2.754,-3.162 -6.222,-5.615 -10.404,-7.361 -4.185,-1.745 -8.888,-2.619 -14.11,-2.619 -7.045,0 -13.078,1.502 -18.094,4.506 -5.019,3.004 -8.777,7.188 -11.278,12.551 -2.501,5.364 -3.751,11.663 -3.751,18.898 0,11.167 2.91,19.974 8.729,26.424 5.819,6.449 13.967,9.674 24.442,9.674 10.318,0 18.394,-3.249 24.23,-9.746 C 54.554,19.903 57.472,11.104 57.472,0" />
            </g>
            <g
               transform="translate(434.6182,374.6784)"
               id="g4099">
              <path
                 id="path4097"
                 style="fill:#ffffff;fill-opacity:1;fill-rule:nonzero;stroke:none"
                 d="m 0,0 h 6.37 c 1.147,0 1.945,-1.139 1.554,-2.217 l -24.533,-67.57 h -8.494 L -50.347,0 h 6.909 c 1.091,0 2.063,-0.689 2.423,-1.718 l 14.921,-42.542 c 2.013,-5.757 3.76,-11.182 5.239,-16.279 0.471,2.359 2.232,7.832 5.284,16.42 C -10.664,-30.057 -5.474,-15.352 0,0" />
            </g>
            <g
               transform="translate(510.8662,333.8625)"
               id="g4103">
              <path
                 id="path4101"
                 style="fill:#ffffff;fill-opacity:1;fill-rule:nonzero;stroke:none"
                 d="M 0,0 C -6.638,19.283 -10.303,30.12 -10.994,32.511 L -22.46,0 Z M 10.805,-28.971 3.181,-8.3 c -0.324,0.877 -1.16,1.459 -2.093,1.459 h -26.284 l -8.447,-22.13 h -8.305 l 26.802,69.928 h 6.599 c 1.053,0 1.995,-0.655 2.362,-1.643 L 18.337,-26.64 c 0.42,-1.13 -0.415,-2.331 -1.62,-2.331 z" />
            </g>
            <g
               transform="translate(281.9233,288.7585)"
               id="g4107">
              <path
                 id="path4105"
                 style="fill:#ffffff;fill-opacity:1;fill-rule:nonzero;stroke:none"
                 d="m 0,0 c -5.254,0 -9.775,-1.273 -13.566,-3.822 -3.791,-2.548 -6.614,-5.977 -8.47,-10.287 -1.856,-4.31 -2.784,-9.265 -2.784,-14.864 0,-4.182 0.503,-7.997 1.51,-11.441 1.007,-3.444 2.517,-6.464 4.53,-9.06 2.013,-2.595 4.632,-4.608 7.857,-6.04 3.223,-1.431 6.927,-2.147 11.111,-2.147 5.38,0 10.947,1.4 16.704,4.2 l 0.942,-4.774 c 0.265,-1.345 -0.399,-2.703 -1.627,-3.311 -4.431,-2.191 -10.084,-3.287 -16.962,-3.287 -5.254,0 -9.964,0.874 -14.132,2.619 -4.169,1.746 -7.613,4.215 -10.334,7.408 -2.721,3.193 -4.789,6.999 -6.205,11.419 -1.415,4.419 -2.123,9.334 -2.123,14.744 0,5.223 0.77,10.036 2.312,14.441 1.541,4.403 3.719,8.185 6.535,11.347 2.815,3.162 6.33,5.623 10.546,7.384 4.215,1.762 8.902,2.643 14.061,2.643 7.015,0 13.045,-1.387 18.092,-4.162 0.989,-0.544 1.362,-1.782 0.872,-2.8 L 16.515,-4.671 C 11.355,-1.558 5.851,0 0,0" />
            </g>
            <g
               transform="translate(318.7451,259.8337)"
               id="g4111">
              <path
                 id="path4109"
                 style="fill:#ffffff;fill-opacity:1;fill-rule:nonzero;stroke:none"
                 d="m 0,0 c 0,-8.966 2.061,-16.004 6.182,-21.115 4.12,-5.113 10.207,-7.667 18.26,-7.667 8.053,0 14.116,2.548 18.19,7.642 4.074,5.097 6.111,12.143 6.111,21.14 0,9.185 -2.053,16.311 -6.158,21.376 -4.106,5.063 -10.137,7.597 -18.096,7.597 -7.958,0 -14.03,-2.534 -18.213,-7.597 C 2.092,16.311 0,9.185 0,0 m 57.472,0 c 0,-5.316 -0.732,-10.176 -2.195,-14.579 -1.462,-4.405 -3.57,-8.189 -6.322,-11.349 -2.753,-3.162 -6.221,-5.615 -10.404,-7.361 -4.184,-1.745 -8.888,-2.619 -14.109,-2.619 -7.046,0 -13.078,1.502 -18.095,4.506 -5.018,3.004 -8.777,7.188 -11.278,12.551 -2.501,5.364 -3.751,11.663 -3.751,18.898 0,11.167 2.91,19.974 8.729,26.424 5.82,6.449 13.967,9.674 24.442,9.674 10.318,0 18.394,-3.249 24.23,-9.746 C 54.554,19.903 57.472,11.104 57.472,0" />
            </g>
            <g
               transform="translate(433.9141,259.6921)"
               id="g4115">
              <path
                 id="path4113"
                 style="fill:#ffffff;fill-opacity:1;fill-rule:nonzero;stroke:none"
                 d="m 0,0 c 0,9.751 -2.517,16.846 -7.55,21.28 -5.033,4.436 -12.362,6.654 -21.988,6.654 h -10.947 v -55.538 h 12.315 c 9.185,0 16.177,2.32 20.974,6.96 C -2.399,-16.003 0,-9.123 0,0 m 8.729,0.236 c 0,-11.356 -3.225,-20.022 -9.673,-25.999 -6.449,-5.977 -15.445,-8.966 -26.99,-8.966 H -48.648 V 35.06 h 19.346 c 5.819,0 11.025,-0.685 15.618,-2.053 4.592,-1.369 8.58,-3.445 11.961,-6.229 C 1.658,23.994 4.247,20.36 6.04,15.878 7.833,11.396 8.729,6.182 8.729,0.236" />
            </g>
            <g
               transform="translate(502.2314,223.9255)"
               id="g4119">
              <path
                 id="path4117"
                 style="fill:#ffffff;fill-opacity:1;fill-rule:nonzero;stroke:none"
                 d="m 0,0 c -5.317,0 -10.091,0.891 -14.321,2.666 -4.232,1.777 -7.723,4.263 -10.475,7.455 -2.753,3.193 -4.86,6.977 -6.323,11.349 -1.463,4.372 -2.194,9.17 -2.194,14.39 0,7.048 1.336,13.276 4.01,18.687 2.674,5.409 6.654,9.673 11.939,12.786 5.284,3.115 11.544,4.672 18.779,4.672 7.014,0 13.282,-1.395 18.805,-4.185 1.322,-0.667 1.887,-2.255 1.267,-3.599 l -2.048,-4.437 c -5.85,3.365 -11.827,5.049 -17.929,5.049 -4.247,0 -8.046,-0.731 -11.396,-2.194 -3.35,-1.463 -6.087,-3.492 -8.211,-6.087 -2.123,-2.595 -3.743,-5.648 -4.859,-9.154 -1.117,-3.508 -1.675,-7.353 -1.675,-11.538 0,-8.87 2.21,-15.877 6.629,-21.02 4.42,-5.143 10.94,-7.714 19.559,-7.714 4.907,0 9.892,0.991 14.958,2.973 V 30.01 H 0.046 l 0.284,7.126 h 21.164 c 1.471,0 2.664,-1.193 2.664,-2.664 V 5.237 C 20.194,3.351 16.365,2.006 12.669,1.203 8.972,0.401 4.749,0 0,0" />
            </g>
          </g>
        </g>
      </g>
    </clipPath>
    <clipPath
       id="clipPath20"
       clipPathUnits="userSpaceOnUse">
      <path
         id="path18"
         d="M 0,595.28 H 841.89 V 0 H 0 Z" />
    </clipPath>
    <clipPath
       id="clipPath20-3"
       clipPathUnits="userSpaceOnUse">
      <path
         id="path18-6"
         d="M 0,595.28 H 841.89 V 0 H 0 Z" />
    </clipPath>
  </defs>
  <metadata
     id="metadata3852">
    <rdf:RDF>
      <cc:Work
         rdf:about="">
        <dc:format>image/svg+xml</dc:format>
        <dc:type
           rdf:resource="http://purl.org/dc/dcmitype/StillImage" />
        <dc:title></dc:title>
      </cc:Work>
    </rdf:RDF>
  </metadata>
  <g
     transform="translate(-0.43897768,-0.93170907)"
     id="layer1">
    <g
       id="g14"
       transform="matrix(0.35277777,0,0,-0.35277777,-85.383899,211.81264)">
      <g
         clip-path="url(#clipPath20-3)"
         id="g16">
        <g
           transform="translate(452.9551,227.3067)"
           id="g22">
          <path
             id="path24"
             style="fill:#f03949;fill-opacity:1;fill-rule:nonzero;stroke:none"
             d="M 0,0 H -2.164 C -3.82,0 -5.163,1.343 -5.163,3 l -0.043,386.35 c 0,1.656 1.344,3 3,3 h 2.163 c 1.657,0 3,-1.344 3,-3 L 2.999,3 C 2.999,1.343 1.656,0 0,0" />
        </g>
        <g
           transform="translate(453.9775,371.4834)"
           id="g26">
          <path
             id="path28"
             style="fill:#ffffff;fill-opacity:1;fill-rule:nonzero;stroke:none"
             d="m 0,0 c 0,-1.174 -0.951,-2.126 -2.126,-2.126 -1.174,0 -2.126,0.952 -2.126,2.126 0,1.175 0.952,2.126 2.126,2.126 C -0.951,2.126 0,1.175 0,0" />
        </g>
        <g
           transform="translate(453.9775,336.8242)"
           id="g30">
          <path
             id="path32"
             style="fill:#ffffff;fill-opacity:1;fill-rule:nonzero;stroke:none"
             d="m 0,0 c 0,-1.175 -0.951,-2.126 -2.126,-2.126 -1.174,0 -2.126,0.951 -2.126,2.126 0,1.174 0.952,2.126 2.126,2.126 C -0.951,2.126 0,1.174 0,0" />
        </g>
        <g
           transform="translate(453.9775,302.1641)"
           id="g34">
          <path
             id="path36"
             style="fill:#ffffff;fill-opacity:1;fill-rule:nonzero;stroke:none"
             d="m 0,0 c 0,-1.174 -0.951,-2.126 -2.126,-2.126 -1.174,0 -2.126,0.952 -2.126,2.126 0,1.174 0.952,2.126 2.126,2.126 C -0.951,2.126 0,1.174 0,0" />
        </g>
        <g
           transform="translate(453.9775,267.5049)"
           id="g38">
          <path
             id="path40"
             style="fill:#ffffff;fill-opacity:1;fill-rule:nonzero;stroke:none"
             d="m 0,0 c 0,-1.175 -0.951,-2.126 -2.126,-2.126 -1.174,0 -2.126,0.951 -2.126,2.126 0,1.174 0.952,2.126 2.126,2.126 C -0.951,2.126 0,1.174 0,0" />
        </g>
        <g
           transform="translate(453.9775,232.8447)"
           id="g42">
          <path
             id="path44"
             style="fill:#ffffff;fill-opacity:1;fill-rule:nonzero;stroke:none"
             d="m 0,0 c 0,-1.174 -0.951,-2.126 -2.126,-2.126 -1.174,0 -2.126,0.952 -2.126,2.126 0,1.174 0.952,2.126 2.126,2.126 C -0.951,2.126 0,1.174 0,0" />
        </g>
        <g
           transform="translate(453.9775,510.1221)"
           id="g46">
          <path
             id="path48"
             style="fill:#ffffff;fill-opacity:1;fill-rule:nonzero;stroke:none"
             d="m 0,0 c 0,-1.174 -0.951,-2.126 -2.126,-2.126 -1.174,0 -2.126,0.952 -2.126,2.126 0,1.175 0.952,2.126 2.126,2.126 C -0.951,2.126 0,1.175 0,0" />
        </g>
        <g
           transform="translate(453.9775,475.4629)"
           id="g50">
          <path
             id="path52"
             style="fill:#ffffff;fill-opacity:1;fill-rule:nonzero;stroke:none"
             d="m 0,0 c 0,-1.175 -0.951,-2.126 -2.126,-2.126 -1.174,0 -2.126,0.951 -2.126,2.126 0,1.174 0.952,2.126 2.126,2.126 C -0.951,2.126 0,1.174 0,0" />
        </g>
        <g
           transform="translate(453.9775,440.8028)"
           id="g54">
          <path
             id="path56"
             style="fill:#ffffff;fill-opacity:1;fill-rule:nonzero;stroke:none"
             d="m 0,0 c 0,-1.174 -0.951,-2.126 -2.126,-2.126 -1.174,0 -2.126,0.952 -2.126,2.126 0,1.175 0.952,2.126 2.126,2.126 C -0.951,2.126 0,1.175 0,0" />
        </g>
        <g
           transform="translate(453.9775,406.1436)"
           id="g58">
          <path
             id="path60"
             style="fill:#ffffff;fill-opacity:1;fill-rule:nonzero;stroke:none"
             d="m 0,0 c 0,-1.175 -0.951,-2.126 -2.126,-2.126 -1.174,0 -2.126,0.951 -2.126,2.126 0,1.174 0.952,2.126 2.126,2.126 C -0.951,2.126 0,1.174 0,0" />
        </g>
        <g
           transform="translate(453.9775,579.4414)"
           id="g62">
          <path
             id="path64"
             style="fill:#ffffff;fill-opacity:1;fill-rule:nonzero;stroke:none"
             d="m 0,0 c 0,-1.174 -0.951,-2.126 -2.126,-2.126 -1.174,0 -2.126,0.952 -2.126,2.126 0,1.175 0.952,2.126 2.126,2.126 C -0.951,2.126 0,1.175 0,0" />
        </g>
        <g
           transform="translate(453.9775,544.7822)"
           id="g66">
          <path
             id="path68"
             style="fill:#ffffff;fill-opacity:1;fill-rule:nonzero;stroke:none"
             d="m 0,0 c 0,-1.174 -0.951,-2.126 -2.126,-2.126 -1.174,0 -2.126,0.952 -2.126,2.126 0,1.174 0.952,2.126 2.126,2.126 C -0.951,2.126 0,1.174 0,0" />
        </g>
        <g
           transform="translate(540.2754,262.0352)"
           id="g70">
          <path
             id="path72"
             style="fill:#224265;fill-opacity:1;fill-rule:nonzero;stroke:none"
             d="m 0,0 c 0,-8.965 2.061,-16.004 6.182,-21.115 4.12,-5.112 10.207,-7.666 18.259,-7.666 8.053,0 14.117,2.547 18.191,7.642 4.073,5.097 6.11,12.143 6.11,21.139 0,9.185 -2.053,16.311 -6.157,21.376 -4.106,5.064 -10.138,7.597 -18.096,7.597 -7.959,0 -14.03,-2.533 -18.214,-7.597 C 2.092,16.311 0,9.185 0,0 m 57.472,0 c 0,-5.315 -0.732,-10.176 -2.195,-14.579 -1.463,-4.404 -3.57,-8.188 -6.322,-11.349 -2.754,-3.162 -6.222,-5.614 -10.404,-7.361 -4.185,-1.744 -8.888,-2.618 -14.11,-2.618 -7.045,0 -13.078,1.502 -18.094,4.506 -5.019,3.004 -8.777,7.187 -11.278,12.55 -2.501,5.364 -3.751,11.663 -3.751,18.899 0,11.166 2.91,19.974 8.729,26.424 5.819,6.448 13.967,9.673 24.442,9.673 10.318,0 18.394,-3.249 24.23,-9.745 5.835,-6.496 8.753,-15.296 8.753,-26.4" />
        </g>
        <g
           transform="translate(430.7656,376.8809)"
           id="g74">
          <path
             id="path76"
             style="fill:#224265;fill-opacity:1;fill-rule:nonzero;stroke:none"
             d="m 0,0 h 6.37 c 1.148,0 1.945,-1.14 1.554,-2.217 l -24.533,-67.571 h -8.494 L -50.347,0 h 6.909 c 1.091,0 2.063,-0.689 2.424,-1.719 l 14.92,-42.541 c 2.013,-5.758 3.76,-11.182 5.239,-16.279 0.471,2.359 2.232,7.832 5.284,16.42 C -10.664,-30.058 -5.474,-15.353 0,0" />
        </g>
        <g
           transform="translate(507.0137,336.0645)"
           id="g78">
          <path
             id="path80"
             style="fill:#224265;fill-opacity:1;fill-rule:nonzero;stroke:none"
             d="M 0,0 C -6.638,19.283 -10.303,30.119 -10.994,32.512 L -22.46,0 Z M 10.805,-28.972 3.181,-8.3 c -0.324,0.876 -1.16,1.458 -2.093,1.458 h -26.284 l -8.447,-22.13 h -8.304 l 26.801,69.929 h 6.599 c 1.054,0 1.996,-0.655 2.362,-1.643 L 18.337,-26.64 c 0.42,-1.13 -0.415,-2.332 -1.62,-2.332 z" />
        </g>
        <g
           transform="translate(278.0708,290.961)"
           id="g82">
          <path
             id="path84"
             style="fill:#224265;fill-opacity:1;fill-rule:nonzero;stroke:none"
             d="m 0,0 c -5.254,0 -9.775,-1.274 -13.566,-3.823 -3.791,-2.547 -6.614,-5.977 -8.47,-10.286 -1.856,-4.311 -2.783,-9.265 -2.783,-14.864 0,-4.183 0.503,-7.997 1.509,-11.442 1.007,-3.443 2.517,-6.464 4.53,-9.059 2.013,-2.596 4.632,-4.609 7.857,-6.04 3.223,-1.432 6.928,-2.147 11.111,-2.147 5.38,0 10.947,1.399 16.704,4.2 l 0.942,-4.775 c 0.265,-1.344 -0.399,-2.703 -1.627,-3.311 -4.431,-2.191 -10.084,-3.286 -16.962,-3.286 -5.254,0 -9.964,0.874 -14.132,2.618 -4.169,1.747 -7.613,4.216 -10.334,7.409 -2.721,3.192 -4.789,6.998 -6.204,11.418 -1.416,4.42 -2.124,9.335 -2.124,14.745 0,5.223 0.771,10.036 2.312,14.44 1.541,4.403 3.719,8.186 6.535,11.348 2.815,3.162 6.331,5.622 10.546,7.384 4.216,1.761 8.902,2.643 14.061,2.643 7.015,0 13.045,-1.388 18.092,-4.162 0.989,-0.544 1.362,-1.783 0.872,-2.8 L 16.515,-4.672 C 11.355,-1.559 5.851,0 0,0" />
        </g>
        <g
           transform="translate(314.8926,262.0352)"
           id="g86">
          <path
             id="path88"
             style="fill:#224265;fill-opacity:1;fill-rule:nonzero;stroke:none"
             d="m 0,0 c 0,-8.965 2.061,-16.004 6.182,-21.115 4.12,-5.112 10.207,-7.666 18.26,-7.666 8.053,0 14.116,2.547 18.19,7.642 4.074,5.097 6.111,12.143 6.111,21.139 0,9.185 -2.053,16.311 -6.158,21.376 C 38.48,26.44 32.448,28.973 24.49,28.973 16.531,28.973 10.459,26.44 6.276,21.376 2.092,16.311 0,9.185 0,0 m 57.472,0 c 0,-5.315 -0.732,-10.176 -2.195,-14.579 -1.462,-4.404 -3.57,-8.188 -6.322,-11.349 -2.753,-3.162 -6.221,-5.614 -10.404,-7.361 -4.184,-1.744 -8.887,-2.618 -14.109,-2.618 -7.046,0 -13.078,1.502 -18.095,4.506 -5.018,3.004 -8.777,7.187 -11.278,12.55 -2.501,5.364 -3.751,11.663 -3.751,18.899 0,11.166 2.91,19.974 8.729,26.424 5.82,6.448 13.967,9.673 24.443,9.673 10.317,0 18.393,-3.249 24.229,-9.745 5.835,-6.496 8.753,-15.296 8.753,-26.4" />
        </g>
        <g
           transform="translate(430.0615,261.8946)"
           id="g90">
          <path
             id="path92"
             style="fill:#224265;fill-opacity:1;fill-rule:nonzero;stroke:none"
             d="m 0,0 c 0,9.751 -2.517,16.845 -7.55,21.28 -5.033,4.436 -12.362,6.654 -21.988,6.654 h -10.947 v -55.539 h 12.316 c 9.184,0 16.176,2.321 20.973,6.96 C -2.399,-16.004 0,-9.124 0,0 m 8.729,0.235 c 0,-11.355 -3.224,-20.021 -9.673,-25.998 -6.449,-5.978 -15.445,-8.966 -26.99,-8.966 h -20.714 v 69.788 h 19.346 c 5.82,0 11.025,-0.684 15.618,-2.053 4.592,-1.368 8.58,-3.445 11.961,-6.229 C 1.658,23.993 4.247,20.36 6.04,15.878 7.833,11.395 8.729,6.181 8.729,0.235" />
        </g>
        <g
           transform="translate(498.3789,226.1279)"
           id="g94">
          <path
             id="path96"
             style="fill:#224265;fill-opacity:1;fill-rule:nonzero;stroke:none"
             d="m 0,0 c -5.316,0 -10.091,0.89 -14.321,2.666 -4.232,1.777 -7.723,4.263 -10.475,7.455 -2.753,3.192 -4.86,6.976 -6.323,11.348 -1.463,4.373 -2.194,9.17 -2.194,14.391 0,7.047 1.336,13.276 4.01,18.686 2.674,5.41 6.654,9.674 11.939,12.787 5.284,3.115 11.544,4.672 18.779,4.672 7.014,0 13.282,-1.396 18.805,-4.185 1.322,-0.668 1.887,-2.255 1.267,-3.6 l -2.048,-4.437 c -5.85,3.365 -11.827,5.05 -17.929,5.05 -4.247,0 -8.046,-0.731 -11.396,-2.195 -3.35,-1.462 -6.087,-3.492 -8.211,-6.086 -2.123,-2.595 -3.743,-5.648 -4.859,-9.154 -1.116,-3.508 -1.675,-7.354 -1.675,-11.538 0,-8.871 2.21,-15.877 6.629,-21.02 4.42,-5.143 10.94,-7.714 19.559,-7.714 4.907,0 9.892,0.99 14.958,2.973 V 30.01 H 0.047 l 0.283,7.125 h 21.164 c 1.472,0 2.664,-1.193 2.664,-2.663 V 5.237 C 20.194,3.351 16.365,2.005 12.669,1.203 8.972,0.401 4.749,0 0,0" />
        </g>
      </g>
    </g>
  </g>
</svg>
