<?xml version="1.0" encoding="UTF-8" standalone="no"?><!DOCTYPE svg PUBLIC "-//W3C//DTD SVG 1.1//EN" "http://www.w3.org/Graphics/SVG/1.1/DTD/svg11.dtd"><svg width="100%" height="100%" viewBox="0 0 1472 1548" version="1.1" xmlns="http://www.w3.org/2000/svg" xmlns:xlink="http://www.w3.org/1999/xlink" xml:space="preserve" xmlns:serif="http://www.serif.com/" style="fill-rule:evenodd;clip-rule:evenodd;stroke-linejoin:round;stroke-miterlimit:1.41421;"><g id="g16"><clipPath id="_clip1"><rect x="0" y="0" width="9943.58" height="7030.87"/></clipPath><g clip-path="url(#_clip1)"><path id="path24" d="M868.468,1542.39l-9.013,0c-6.9,0 -12.5,-5.596 -12.5,-12.496l-0.175,-1609.79c0,-6.905 5.6,-12.5 12.5,-12.5l9.013,0c6.904,0 12.5,5.595 12.5,12.5l0.175,1609.79c0,6.9 -5.596,12.496 -12.5,12.496" style="fill:#f03949;fill-rule:nonzero;"/><path id="path28" d="M872.732,941.66c0,4.892 -3.962,8.859 -8.858,8.859c-4.892,0 -8.858,-3.967 -8.858,-8.859c0,-4.891 3.966,-8.858 8.858,-8.858c4.896,0 8.858,3.967 8.858,8.858" style="fill:#fff;fill-rule:nonzero;"/><path id="path32" d="M872.732,1086.08c0,4.891 -3.962,8.858 -8.858,8.858c-4.892,0 -8.858,-3.967 -8.858,-8.858c0,-4.892 3.966,-8.859 8.858,-8.859c4.896,0 8.858,3.967 8.858,8.859" style="fill:#fff;fill-rule:nonzero;"/><path id="path36" d="M872.732,1230.49c0,4.892 -3.962,8.859 -8.858,8.859c-4.892,0 -8.858,-3.967 -8.858,-8.859c0,-4.891 3.966,-8.858 8.858,-8.858c4.896,0 8.858,3.967 8.858,8.858" style="fill:#fff;fill-rule:nonzero;"/><path id="path40" d="M872.732,1374.91c0,4.892 -3.962,8.859 -8.858,8.859c-4.892,0 -8.858,-3.967 -8.858,-8.859c0,-4.891 3.966,-8.858 8.858,-8.858c4.896,0 8.858,3.967 8.858,8.858" style="fill:#fff;fill-rule:nonzero;"/><path id="path44" d="M872.732,1519.32c0,4.891 -3.962,8.858 -8.858,8.858c-4.892,0 -8.858,-3.967 -8.858,-8.858c0,-4.896 3.966,-8.859 8.858,-8.859c4.896,0 8.858,3.963 8.858,8.859" style="fill:#fff;fill-rule:nonzero;"/><path id="path48" d="M872.732,364c0,4.891 -3.962,8.858 -8.858,8.858c-4.892,0 -8.858,-3.967 -8.858,-8.858c0,-4.892 3.966,-8.859 8.858,-8.859c4.896,0 8.858,3.967 8.858,8.859" style="fill:#fff;fill-rule:nonzero;"/><path id="path52" d="M872.732,508.415c0,4.891 -3.962,8.858 -8.858,8.858c-4.892,0 -8.858,-3.967 -8.858,-8.858c0,-4.892 3.966,-8.859 8.858,-8.859c4.896,0 8.858,3.967 8.858,8.859" style="fill:#fff;fill-rule:nonzero;"/><path id="path56" d="M872.732,652.83c0,4.892 -3.962,8.858 -8.858,8.858c-4.892,0 -8.858,-3.966 -8.858,-8.858c0,-4.892 3.966,-8.858 8.858,-8.858c4.896,0 8.858,3.966 8.858,8.858" style="fill:#fff;fill-rule:nonzero;"/><path id="path60" d="M872.732,797.245c0,4.892 -3.962,8.859 -8.858,8.859c-4.892,0 -8.858,-3.967 -8.858,-8.859c0,-4.891 3.966,-8.858 8.858,-8.858c4.896,0 8.858,3.967 8.858,8.858" style="fill:#fff;fill-rule:nonzero;"/><path id="path64" d="M872.732,75.167c0,4.891 -3.962,8.858 -8.858,8.858c-4.892,0 -8.858,-3.967 -8.858,-8.858c0,-4.892 3.966,-8.859 8.858,-8.859c4.896,0 8.858,3.967 8.858,8.859" style="fill:#fff;fill-rule:nonzero;"/><path id="path68" d="M872.732,219.582c0,4.892 -3.962,8.858 -8.858,8.858c-4.892,0 -8.858,-3.966 -8.858,-8.858c0,-4.892 3.966,-8.858 8.858,-8.858c4.896,0 8.858,3.966 8.858,8.858" style="fill:#fff;fill-rule:nonzero;"/><path id="path72" d="M1232.31,1397.69c0,37.358 8.587,66.683 25.758,87.979c17.167,21.304 42.529,31.946 76.079,31.946c33.554,0 58.821,-10.617 75.796,-31.842c16.971,-21.237 25.458,-50.596 25.458,-88.083c0,-38.271 -8.554,-67.963 -25.658,-89.067c-17.104,-21.096 -42.238,-31.654 -75.396,-31.654c-33.162,0 -58.458,10.558 -75.892,31.654c-17.429,21.104 -26.145,50.796 -26.145,89.067m239.466,0c0,22.15 -3.05,42.4 -9.146,60.746c-6.095,18.354 -14.875,34.121 -26.341,47.287c-11.475,13.175 -25.925,23.396 -43.35,30.671c-17.438,7.271 -37.034,10.913 -58.792,10.913c-29.354,0 -54.492,-6.259 -75.392,-18.775c-20.912,-12.517 -36.57,-29.95 -46.991,-52.296c-10.421,-22.35 -15.629,-48.596 -15.629,-78.742c0,-46.529 12.125,-83.225 36.37,-110.1c24.246,-26.871 58.196,-40.308 101.842,-40.308c42.992,0 76.642,13.537 100.958,40.608c24.313,27.067 36.471,63.729 36.471,109.996" style="fill:#fff;fill-rule:nonzero;"/><path id="path76" d="M776.016,919.173l26.542,0c4.779,0 8.104,4.746 6.475,9.238l-102.221,281.541l-35.392,0l-105.183,-290.779l28.788,0c4.545,0 8.595,2.871 10.095,7.159l62.171,177.258c8.388,23.987 15.667,46.592 21.829,67.829c1.963,-9.829 9.3,-32.633 22.017,-68.417c20.446,-58.591 42.071,-119.862 64.879,-183.829" style="fill:#fff;fill-rule:nonzero;"/><path id="path80" d="M1093.72,1089.24c-27.658,-80.346 -42.929,-125.5 -45.808,-135.463l-47.775,135.463l93.583,0Zm45.021,120.712l-31.767,-86.129c-1.35,-3.654 -4.833,-6.079 -8.72,-6.079l-109.517,0l-35.196,92.208l-34.604,0l111.675,-291.367l27.496,0c4.387,0 8.312,2.73 9.841,6.846l102.175,274.809c1.75,4.708 -1.729,9.712 -6.75,9.712l-24.633,0Z" style="fill:#fff;fill-rule:nonzero;"/><path id="path84" d="M139.787,1277.17c-21.891,0 -40.729,5.304 -56.525,15.925c-15.795,10.617 -27.558,24.904 -35.291,42.862c-7.734,17.959 -11.6,38.605 -11.6,61.934c0,17.425 2.096,33.321 6.291,47.671c4.196,14.35 10.488,26.933 18.875,37.75c8.388,10.812 19.3,19.2 32.738,25.166c13.429,5.963 28.862,8.946 46.296,8.946c22.416,0 45.612,-5.833 69.6,-17.5l3.925,19.892c1.104,5.604 -1.663,11.262 -6.779,13.796c-18.463,9.129 -42.017,13.695 -70.675,13.695c-21.892,0 -41.517,-3.641 -58.884,-10.912c-17.371,-7.275 -31.721,-17.563 -43.058,-30.867c-11.338,-13.304 -19.954,-29.162 -25.854,-47.579c-5.896,-18.412 -8.846,-38.892 -8.846,-61.433c0,-21.763 3.208,-41.817 9.633,-60.171c6.421,-18.346 15.496,-34.104 27.229,-47.279c11.73,-13.175 26.375,-23.429 43.942,-30.767c17.563,-7.342 37.092,-11.012 58.588,-11.012c29.229,0 54.354,5.779 75.383,17.341c4.121,2.267 5.675,7.425 3.633,11.667l-9.808,20.337c-21.5,-12.97 -44.433,-19.462 -68.813,-19.462" style="fill:#fff;fill-rule:nonzero;"/><path id="path88" d="M293.212,1397.69c0,37.358 8.587,66.683 25.758,87.979c17.167,21.304 42.529,31.946 76.083,31.946c33.554,0 58.817,-10.617 75.792,-31.842c16.975,-21.237 25.462,-50.596 25.462,-88.083c0,-38.271 -8.554,-67.963 -25.658,-89.067c-17.108,-21.096 -42.237,-31.654 -75.4,-31.654c-33.158,0 -58.458,10.558 -75.887,31.654c-17.434,21.104 -26.15,50.796 -26.15,89.067m239.466,0c0,22.15 -3.05,42.4 -9.146,60.746c-6.091,18.354 -14.875,34.121 -26.341,47.287c-11.471,13.175 -25.921,23.396 -43.35,30.671c-17.434,7.271 -37.034,10.913 -58.788,10.913c-29.358,0 -54.491,-6.259 -75.396,-18.775c-20.908,-12.517 -36.57,-29.95 -46.991,-52.296c-10.421,-22.35 -15.629,-48.596 -15.629,-78.742c0,-46.529 12.125,-83.225 36.37,-110.1c24.25,-26.871 58.196,-40.308 101.842,-40.308c42.992,0 76.642,13.537 100.958,40.608c24.313,27.067 36.471,63.729 36.471,109.996" style="fill:#fff;fill-rule:nonzero;"/><path id="path92" d="M773.082,1398.28c0,-40.629 -10.487,-70.192 -31.458,-88.667c-20.971,-18.483 -51.508,-27.725 -91.617,-27.725l-45.612,0l0,231.409l51.312,0c38.271,0 67.405,-9.667 87.392,-29c19.988,-19.338 29.983,-48.005 29.983,-86.017m36.371,-0.983c0,47.316 -13.437,83.425 -40.304,108.329c-26.871,24.904 -64.354,37.358 -112.458,37.358l-86.309,0l0,-290.787l80.609,0c24.246,0 45.937,2.854 65.075,8.554c19.133,5.704 35.75,14.354 49.837,25.954c14.088,11.6 24.875,26.742 32.346,45.417c7.471,18.675 11.204,40.4 11.204,65.175" style="fill:#fff;fill-rule:nonzero;"/><path id="path96" d="M1057.74,1547.31c-22.154,0 -42.046,-3.712 -59.671,-11.108c-17.633,-7.404 -32.179,-17.762 -43.646,-31.062c-11.471,-13.305 -20.25,-29.071 -26.346,-47.288c-6.095,-18.217 -9.141,-38.208 -9.141,-59.958c0,-29.367 5.566,-55.317 16.708,-77.863c11.142,-22.537 27.725,-40.304 49.746,-53.275c22.017,-12.979 48.1,-19.466 78.246,-19.466c29.225,0 55.341,5.812 78.354,17.437c5.508,2.779 7.862,9.396 5.279,14.996l-8.533,18.487c-24.375,-14.02 -49.279,-21.037 -74.704,-21.037c-17.696,0 -33.525,3.046 -47.484,9.142c-13.958,6.095 -25.362,14.55 -34.212,25.362c-8.846,10.813 -15.596,23.533 -20.246,38.142c-4.654,14.616 -6.979,30.637 -6.979,48.075c0,36.958 9.208,66.154 27.621,87.583c18.416,21.429 45.583,32.142 81.495,32.142c20.446,0 41.217,-4.129 62.325,-12.388l0,-82.962l-68.62,0l1.183,-29.692l88.183,0c6.129,0 11.1,4.971 11.1,11.1l0,121.813c-16.516,7.858 -32.471,13.462 -47.871,16.808c-15.404,3.342 -33,5.012 -52.787,5.012" style="fill:#fff;fill-rule:nonzero;"/></g></g></svg>